<?xml version="1.0" encoding="UTF-8" standalone="no"?>
<svg width="28px" height="27px" viewBox="0 0 28 27" version="1.1" xmlns="http://www.w3.org/2000/svg" xmlns:xlink="http://www.w3.org/1999/xlink">
    <!-- Generator: Sketch 39.1 (31720) - http://www.bohemiancoding.com/sketch -->
    <title>Github-color</title>
    <desc>Created with Sketch.</desc>
    <defs></defs>
    <g id="Page-1" stroke="none" stroke-width="1" fill="none" fill-rule="evenodd">
        <g id="fabian_mx" transform="translate(-363.000000, -678.000000)" fill="#3E75C3">
            <path d="M377.157182,678 C369.66247,678 363.585264,684.100445 363.585264,691.627421 C363.585264,697.646958 367.473861,702.754367 372.868188,704.556481 C373.546826,704.681675 373.794529,704.260954 373.794529,703.89985 C373.794529,703.576219 373.782653,702.719449 373.775866,701.582482 C370.000093,702.406038 369.203541,699.75567 369.203541,699.75567 C368.586828,698.181801 367.696964,697.762784 367.696964,697.762784 C366.464387,696.917085 367.790277,696.934118 367.790277,696.934118 C369.151795,697.030356 369.868606,698.338507 369.868606,698.338507 C371.079976,700.420817 373.045482,699.819544 373.81913,699.470364 C373.942133,698.589747 374.293328,697.989326 374.681,697.648662 C371.666998,697.304591 368.498605,696.136112 368.498605,690.914581 C368.498605,689.42673 369.027095,688.210559 369.895752,687.257551 C369.755783,686.912628 369.290067,685.527828 370.028086,683.65162 C370.028086,683.65162 371.168199,683.285406 373.760597,685.048343 C374.843873,684.746004 376.004345,684.59526 377.158878,684.589298 C378.311715,684.59526 379.473035,684.746004 380.55716,685.048343 C383.147861,683.285406 384.285429,683.65162 384.285429,683.65162 C385.025993,685.527828 384.560277,686.912628 384.420308,687.257551 C385.290662,688.210559 385.815758,689.42673 385.815758,690.914581 C385.815758,696.148887 382.642276,697.301184 379.618942,697.638442 C380.105865,698.059162 380.540194,698.890383 380.540194,700.161912 C380.540194,701.983614 380.523228,703.452729 380.523228,703.89985 C380.523228,704.264361 380.767537,704.688488 381.456355,704.554777 C386.845592,702.749257 390.730796,697.645255 390.730796,691.627421 C390.730796,684.100445 384.65359,678 377.157182,678" id="Github"></path>
        </g>
    </g>
</svg>