<?xml version="1.0" encoding="UTF-8" standalone="no"?>
<svg width="25px" height="22px" viewBox="0 0 25 22" version="1.1" xmlns="http://www.w3.org/2000/svg" xmlns:xlink="http://www.w3.org/1999/xlink">
    <!-- Generator: Sketch 39.1 (31720) - http://www.bohemiancoding.com/sketch -->
    <title>LinkedIn-color</title>
    <desc>Created with Sketch.</desc>
    <defs></defs>
    <g id="Page-1" stroke="none" stroke-width="1" fill="none" fill-rule="evenodd">
        <g id="fabian_mx" transform="translate(-429.000000, -680.000000)" fill="#007EBB">
            <path d="M453.070949,701.882681 L447.750941,701.882681 L447.750941,694.190044 C447.750941,692.176506 446.918761,690.80192 445.088814,690.80192 C443.68911,690.80192 442.91071,691.729521 442.548401,692.623492 C442.412534,692.944369 442.433763,693.391354 442.433763,693.83834 L442.433763,701.882681 L437.16329,701.882681 C437.16329,701.882681 437.231223,688.255923 437.16329,687.017255 L442.433763,687.017255 L442.433763,689.350268 C442.745123,688.330188 444.429297,686.874331 447.116899,686.874331 C450.45128,686.874331 453.070949,689.012576 453.070949,693.616949 L453.070949,701.882681 L453.070949,701.882681 Z M431.833375,685.15785 L431.799408,685.15785 C430.101082,685.15785 429,684.02147 429,682.581027 C429,681.11256 430.133633,680 431.865926,680 C433.596804,680 434.661089,681.109758 434.695055,682.576823 C434.695055,684.017266 433.596804,685.15785 431.833375,685.15785 L431.833375,685.15785 L431.833375,685.15785 Z M429.607152,687.017255 L434.298779,687.017255 L434.298779,701.882681 L429.607152,701.882681 L429.607152,687.017255 L429.607152,687.017255 Z" id="LinkedIn"></path>
        </g>
    </g>
</svg>