<?xml version="1.0" encoding="UTF-8" standalone="no"?>
<svg width="27px" height="23px" viewBox="0 0 27 23" version="1.1" xmlns="http://www.w3.org/2000/svg" xmlns:xlink="http://www.w3.org/1999/xlink">
    <!-- Generator: Sketch 39.1 (31720) - http://www.bohemiancoding.com/sketch -->
    <title>Medium-color</title>
    <desc>Created with Sketch.</desc>
    <defs></defs>
    <g id="Page-1" stroke="none" stroke-width="1" fill="none" fill-rule="evenodd">
        <g id="fabian_mx" transform="translate(-299.000000, -680.000000)">
            <g id="Medium" transform="translate(299.056843, 680.000000)">
                <path d="M18.1550282,0.266664782 C17.7601491,0.0680369023 17.4371111,0.268907757 17.4371111,0.713016768 L17.4371111,18.3799324 L24.6432844,22.0048289 C25.4362632,22.40358 26.0791186,22.1244542 26.0791186,21.3812819 L26.0791186,4.36856726 C26.0791186,4.29753972 26.0389866,4.23224423 25.9758158,4.20034415 L18.1550282,0.266664782" id="Fill-1" fill="#00FC87"></path>
                <path d="M8.79535139,14.0330472 L17.0164682,0.593142226 C17.2478466,0.214827142 17.7601491,0.0680369023 18.1550282,0.266664782 L25.9847341,4.2048301 C26.0355184,4.2304997 26.0536026,4.29429987 26.0238752,4.34289766 L17.4371111,18.3799324 L8.79535139,14.0330472" id="Fill-2" fill="#00E468"></path>
                <path d="M1.3498724,0.507410744 C0.691657872,0.176198132 0.468702254,0.421180824 0.854415473,1.05170596 L8.79535139,14.0330472 L17.4371111,18.3799324 L8.81393103,4.28283578 C8.80179233,4.26289822 8.78420361,4.24694818 8.76339442,4.23648096 L1.3498724,0.507410744" id="Fill-3" fill="#00C860"></path>
                <path d="M8.79535139,21.3812819 C8.79535139,22.1214636 8.25678971,22.4561653 7.59882291,22.1252019 L0.871261008,18.7410514 C0.476381837,18.5424235 0.153343919,18.0165705 0.153343919,17.5724615 L0.153343919,0.982173744 C0.153343919,0.390028396 0.584143718,0.122117517 1.1105667,0.387037763 L8.74877844,4.22900438 C8.77726721,4.24345911 8.79535139,4.27261778 8.79535139,4.30451787 L8.79535139,21.3812819" id="Fill-4" fill="#00AC68"></path>
            </g>
        </g>
    </g>
</svg>