<?xml version="1.0" encoding="UTF-8" standalone="no"?>
<svg width="27px" height="22px" viewBox="0 0 27 22" version="1.1" xmlns="http://www.w3.org/2000/svg" xmlns:xlink="http://www.w3.org/1999/xlink">
    <!-- Generator: Sketch 39.1 (31720) - http://www.bohemiancoding.com/sketch -->
    <title>Twitter-color</title>
    <desc>Created with Sketch.</desc>
    <defs></defs>
    <g id="Page-1" stroke="none" stroke-width="1" fill="none" fill-rule="evenodd">
        <g id="fabian_mx" transform="translate(-170.000000, -680.000000)" fill="#00AAEC">
            <path d="M196.259217,682.590517 C195.29436,683.02991 194.25552,683.327053 193.165818,683.459819 C194.27864,682.777022 195.132523,681.694347 195.534804,680.40462 C194.492881,681.036839 193.341526,681.496779 192.111565,681.743344 C191.131295,680.670152 189.730248,680 188.179695,680 C185.206517,680 182.794375,682.473557 182.794375,685.524014 C182.794375,685.957084 182.840614,686.377509 182.933092,686.78213 C178.4556,686.55137 174.48674,684.354409 171.827988,681.008389 C171.364055,681.827113 171.098951,682.777022 171.098951,683.788573 C171.098951,685.704196 172.049936,687.395382 173.49568,688.386385 C172.614054,688.359516 171.781749,688.108209 171.054253,687.697267 L171.054253,687.76523 C171.054253,690.442678 172.911526,692.675991 175.377614,693.181767 C174.926012,693.311372 174.449748,693.376174 173.958072,693.376174 C173.611278,693.376174 173.272191,693.342983 172.943893,693.27818 C173.629774,695.47198 175.618058,697.069914 177.976255,697.112588 C176.132854,698.595142 173.808565,699.478668 171.285449,699.478668 C170.8508,699.478668 170.420776,699.453379 170,699.402802 C172.384399,700.967544 175.217318,701.882681 178.258313,701.882681 C188.168906,701.882681 193.586594,693.466265 193.586594,686.165716 C193.586594,685.925473 193.58197,685.68523 193.572722,685.449728 C194.625434,684.670518 195.539428,683.698481 196.259217,682.590517" id="Twitter"></path>
        </g>
    </g>
</svg>